# xmcd CD database file
# Copyright (C) 1993-1998 Ti Kan
# 
# Track frame offsets:
#     150
#     14832
#     28832
#     40652
#     53532
#     65400
#     75720
#     87697
#     99105
#     113190
#     124980
#     139367
#     151670
#     165505
#     177687
#     188812
#     200062
# 
# Disc length: 2833 seconds
# 
# Revision: 1
# Processed by: cddbd v1.4b41PL1 Copyright (c) Steve Scherf et al.
# Submitted via: DiscPlay 4.0.4
# 
DISCID=eb0b0f11
DTITLE=Freddie King - All His Hits
DYEAR=1900
DGENRE=
TTITLE0=You Gotta Love Her With A Feeling
TTITLE1=Have You Ever Loved A Woman
TTITLE2=Hide Away
TTITLE3=Lonesome Whistle Blues
TTITLE4=San-Ho-Zay
TTITLE5=See See Baby
TTITLE6=I'm Tore Down
TTITLE7=Heads Up
TTITLE8=Side Tracked
TTITLE9=What About Love
TTITLE10=Look Ma, I'm Cryin'
TTITLE11=The Welfare (Turns It's Back On You)
TTITLE12=Onion Rings
TTITLE13=High Rise
TTITLE14=Some Other Day - Some Other Time
TTITLE15=Full Time Love
TTITLE16=Christmas Tears
EXTD=
EXTT0=
EXTT1=
EXTT2=
EXTT3=
EXTT4=
EXTT5=
EXTT6=
EXTT7=
EXTT8=
EXTT9=
EXTT10=
EXTT11=
EXTT12=
EXTT13=
EXTT14=
EXTT15=
EXTT16=
PLAYORDER=
